<?xml version="1.0" standalone="no"?>
<!DOCTYPE svg PUBLIC "-//W3C//DTD SVG 20010904//EN"
 "http://www.w3.org/TR/2001/REC-SVG-20010904/DTD/svg10.dtd">
<svg version="1.0" xmlns="http://www.w3.org/2000/svg"
 width="101.000000pt" height="121.000000pt" viewBox="0 0 101.000000 121.000000"
 preserveAspectRatio="xMidYMid meet">

<g transform="translate(0.000000,121.000000) scale(0.100000,-0.100000)"
fill="#fff" stroke="none">
<path d="M476 1146 c-8 -32 11 -132 34 -177 11 -20 31 -50 45 -68 46 -54 9
-34 -44 25 l-51 55 -55 -11 c-177 -37 -323 -178 -370 -355 -68 -263 120 -543
390 -580 l50 -7 -51 31 c-98 57 -156 157 -158 270 -1 101 25 164 98 237 72 71
126 94 226 94 84 0 152 -23 196 -66 45 -45 89 -46 139 -3 19 17 35 35 35 40 0
5 -16 43 -35 83 -24 50 -54 93 -94 133 l-59 58 34 39 c37 43 74 130 74 176 l0
28 -40 -15 c-48 -19 -112 -73 -151 -126 l-28 -38 -22 43 c-31 62 -64 102 -107
132 -46 32 -48 32 -56 2z m327 -380 c9 -22 -18 -40 -33 -22 -6 9 -9 20 -5 26
9 15 32 12 38 -4z"/>
</g>
</svg>
